<svg width="222" height="345" fill="none" xmlns="http://www.w3.org/2000/svg"><g filter="url(#filter0_d)"><rect x="1" y="1" width="218" height="341" rx="10" fill="#F4F4F4"/></g><path opacity=".7" d="M63 187h-3v9h-2v-9h-4v-2h9v2zm3 3h3a3 3 0 012 3l-1 2-3 1h-3v-8h2v2zm9 6h-2v-8h2v8zm-9-4v2h3v-1-1h-3zm22 4h-2v-3h-3v3h-2v-8h2v3h3v-3h2v8zm7 0l-1-1-2 1-2-1-1-1 1-2 3-1h1v-1-1h-1-1v1h-2v-1l1-1 2-1 3 1 1 2v6h-2zm-2-2h1v-2l-2 1v1h1zm8-6v6h2v-6h2v6h3v-6h2v8H98v-8h3zm15 8l-4-1-1-3 1-3 1-1 2-1 3 1 1 4v1h-5v1h2l2-1 1 2-2 1h-1zm-1-7l-1 1v1h3l-1-1-1-1zm13-1v8h-3v-7h-2v3l-1 3-2 1v-2l1-1v-5h7zm10 0l2 1 1 3-1 3-3 1-3-1-1-3v-1l1-4 3-2 1-1h2v2l-3 1h-1l-1 2 3-1zm-1 2h-1l-1 2 1 2h2l1-2-1-2h-1zm10 6v-1l-2 1-2-1-1-1 1-2 3-1h1v-1-1h-2v1h-3l1-1 1-1 2-1 2 1 1 2v4l1 2h-3zm-1-2h1v-2h-1l-2 1 1 1h1zm11-5h-4v7h-2v-8h6v1zm3 4h-2v-8h2v8zm-1 1h1v2h-1-1v-1-1h1zM58 210h-1v5h-2v-11h2v4h1l3-4h3l-4 5 4 6h-3l-3-5zm14-3v8h-2v-7h-2v3l-1 3-2 1h-1v-2l1-1 1-2v-3h6zm7 0h2v8h-2v-5l-3 5h-2v-8h2v5l3-5zm7 5h-1v3h-2v-8h2v3h1l2-3h3l-3 4 3 4h-3l-2-3zm13 3h-2v-3h-3v3h-2v-8h2v3h3v-3h2v8zm7-8h2v8h-2v-5l-3 5h-2v-8h2v5l3-5zm5 11l-1-1v-4h2v3l-1 2zm10-3h-2v-3h-4l-1-3v-2h2v2l1 1 1 1h1v-4h2v8zm9-7h-3v7h-2v-7h-3v-1h8v1zm1 3v-3l1-1 3-1 2 1 2 3v1l-2 3-2 1-3-1-1-3zm2 0v2h3v-2-2l-1-1-2 1v2zm11-4l3 1 1 3-1 3-3 1-3-1-1-3v-1l1-4c0-1 1-2 3-2l1-1h2l-1 2-2 1h-2v2l2-1zm0 2h-2v4h3v-2-2h-1zm7 0h4a3 3 0 012 3l-1 2-3 1h-4v-8h2v2zm9 6h-2v-8h2v8zm-9-4v2h3v-1-1h-3zM50 231h1v-1h2v2l-1 1h-2l-3-1-1-3 1-3 3-2 2 1 1 3h-2v-1l-1-1-1 1-1 2 1 2h1zm7-4h4a3 3 0 011 3l-1 2-2 1h-4v-8h2v2zm9 6h-2v-8h2v8zm-9-4v2h3v-1-1h-3zm17-3h-4v7h-2v-8h6v1zm8 3l-1 3-2 1-2-1v4h-2v-11h2l2-1 2 2 1 3zm-2 0l-1-2-1-1-1 1v4h1l2-2zm8 4v-1l-2 1-2-1-1-1 1-2 3-1h1v-1-1h-1-1v1h-3l1-1 1-1 2-1 2 1 1 2v4l1 2h-3zm-1-2h1v-2h-1l-1 1h-1l1 1h1zm12-5h-3v7h-2v-7h-3v-1h8v1zm4 1h3a3 3 0 012 3l-1 2-3 1h-4v-8h3v2zm0 2v2h2l1-1-1-1h-2zm14 4l-3-1-1-3v-3l2-1 2-1 2 1 1 4v1h-5l1 1h1l2-1 1 2-1 1h-2zm0-7l-1 1-1 1h3v-1l-1-1zm7-1v6h2v-6h3v6h2v-6h2v6h2v5h-2v-3h-11v-8h2zm16 8l-3-1-1-3v-3l2-1 2-1 2 1 1 4v1h-5l1 1h1l2-1 1 2-1 1h-2zm0-7l-1 1-1 1h3v-1l-1-1zm-1-4l-1 1h-1l-1-1h1l1-1v1h1zm1 0h1v-1l1 1v1h-1l-1-1zm16 7l-1 3-2 1-2-1v4h-2v-11h2l2-1 2 2 1 3zm-2 0v-2l-2-1-1 1v4h1l2-2zm9 4l-1-1-2 1-2-1-1-1 1-2 3-1h1v-1-1h-1-1v1h-2v-1l1-1 2-1 3 1 1 2v6h-2zm-2-2h1v-2h-1l-1 1v1h1zm10-4l-1-1h-1l-1 1h-2l1-2 2-1 3 1 1 2v1l-1 1 1 2-1 1-3 1-2-1-1-1h5v-1l-1-1h-2v-1h2l1-1z" fill="#000"/><path d="M141 135l-2-1h-9v-11l7-8 1-1-1-2-2-1-1 1-7 7H92l-7-7-2-1-1 1-1 2 1 1 7 8v11h-9l-2 1-1 2 1 2 2 1h9c0 4 0 8 2 11l-8 9-1 2 1 2h2l2-1 7-8 1 1 2 1 2 2a17 17 0 008 1v-36h5v36h4a19 19 0 006-3 24 24 0 002-1l8 8h4l1-2-1-2-8-9 2-11h9l2-1 1-2-1-2z" fill="#EA050E"/><path d="M119 104l-9-3c-4 0-7 1-10 3-2 3-3 6-3 10h25c0-4-1-7-3-10zM37 56h-4v-5l2-2 1-1-1-1h-1l-3 3H19l-3-3h-1l-1 1 1 1 2 2v5h-3-1v1l1 1h3l1 4-3 3v2h1l1-1 2-3 1 1 1 1a6 6 0 003 0V52h2v13h1a7 7 0 003-1l3 2 1 1 1-1v-1l-3-3 1-4h3l1-1v-1z" fill="#EA050E"/><path d="M28 45l-3-2-3 2-2 3h10l-2-3zM19 35V18h6l4 1 1 3-1 3-1 1 2 2 1 2-2 4-4 1h-6zm2-8v6h4l2-1 1-2c0-2-1-3-3-3h-4zm0-2h4l2-1 1-2-1-2h-6v5z" fill="#EA050E"/><g clip-path="url(#clip0)" fill="#EA050E"><path d="M183 287h4v5l-2 2-1 1 1 1h1l3-3h12l3 3h1l1-1-1-1-2-2v-5h4v-1l-1-1h-3l-1-4 3-3v-1-1h-1l-1 1-2 3-1-1-1-1a6 6 0 00-3 0v13h-2v-13h-1a7 7 0 00-3 1l-3-2-1-1-1 1v1l3 3-1 4h-3l-1 1v1z"/><path d="M192 298l3 2 3-2 2-3h-10l2 3z"/></g><path d="M201 308v17h-6l-4-1-1-3 1-3 1-1-2-1-1-3 2-4 4-1h6zm-2 8v-6h-4l-2 1-1 2c0 2 1 3 3 3h4zm0 2h-4l-2 1-1 2 1 2h6v-5z" fill="#EA050E"/><defs><clipPath id="clip0"><path fill="#fff" transform="rotate(-180 104 150)" d="M0 0h24v24H0z"/></clipPath><filter id="filter0_d" x="0" y="0" width="222" height="345" filterUnits="userSpaceOnUse" color-interpolation-filters="sRGB"><feFlood flood-opacity="0" result="BackgroundImageFix"/><feColorMatrix in="SourceAlpha" values="0 0 0 0 0 0 0 0 0 0 0 0 0 0 0 0 0 0 127 0"/><feOffset dx="1" dy="1"/><feGaussianBlur stdDeviation="1"/><feColorMatrix values="0 0 0 0 0 0 0 0 0 0 0 0 0 0 0 0 0 0 0.7 0"/><feBlend in2="BackgroundImageFix" result="effect1_dropShadow"/><feBlend in="SourceGraphic" in2="effect1_dropShadow" result="shape"/></filter></defs></svg>