<svg width="222" height="345" viewBox="0 0 222 345" fill="none" xmlns="http://www.w3.org/2000/svg">
<g filter="url(#filter0_d)">
<rect x="1" y="1" width="218" height="341" rx="10" fill="#F4F4F4"/>
</g>
<path opacity="0.7" d="M63.3438 186.523H59.8594V196H57.5156V186.523H54.0781V184.625H63.3438V186.523ZM65.9219 190.023H67.5391C68.2682 190.023 68.9089 190.146 69.4609 190.391C70.013 190.635 70.4349 190.987 70.7266 191.445C71.0234 191.898 71.1719 192.427 71.1719 193.031C71.1719 193.922 70.8411 194.641 70.1797 195.188C69.5234 195.729 68.6276 196 67.4922 196H63.6562V187.547H65.9219V190.023ZM74.7656 196H72.5078V187.547H74.7656V196ZM65.9219 191.836V194.195H67.5234C67.9714 194.195 68.3151 194.091 68.5547 193.883C68.7943 193.674 68.9141 193.391 68.9141 193.031C68.9141 192.667 68.7969 192.378 68.5625 192.164C68.3281 191.945 67.9818 191.836 67.5234 191.836H65.9219ZM88.0703 196H85.8047V192.75H83V196H80.7422V187.547H83V190.938H85.8047V187.547H88.0703V196ZM94.7188 196C94.6146 195.797 94.5391 195.544 94.4922 195.242C93.9453 195.852 93.2344 196.156 92.3594 196.156C91.5312 196.156 90.8438 195.917 90.2969 195.438C89.7552 194.958 89.4844 194.354 89.4844 193.625C89.4844 192.729 89.8151 192.042 90.4766 191.562C91.1432 191.083 92.1042 190.841 93.3594 190.836H94.3984V190.352C94.3984 189.961 94.2969 189.648 94.0938 189.414C93.8958 189.18 93.5807 189.062 93.1484 189.062C92.7682 189.062 92.4688 189.154 92.25 189.336C92.0365 189.518 91.9297 189.768 91.9297 190.086H89.6719C89.6719 189.596 89.8229 189.143 90.125 188.727C90.4271 188.31 90.8542 187.984 91.4062 187.75C91.9583 187.51 92.5781 187.391 93.2656 187.391C94.3073 187.391 95.1328 187.654 95.7422 188.18C96.3568 188.701 96.6641 189.435 96.6641 190.383V194.047C96.6693 194.849 96.7812 195.456 97 195.867V196H94.7188ZM92.8516 194.43C93.1849 194.43 93.4922 194.357 93.7734 194.211C94.0547 194.06 94.263 193.859 94.3984 193.609V192.156H93.5547C92.4245 192.156 91.8229 192.547 91.75 193.328L91.7422 193.461C91.7422 193.742 91.8411 193.974 92.0391 194.156C92.237 194.339 92.5078 194.43 92.8516 194.43ZM100.656 187.547V194.18H102.977V187.547H105.242V194.18H107.562V187.547H109.82V196H98.3984V187.547H100.656ZM115.523 196.156C114.284 196.156 113.273 195.776 112.492 195.016C111.716 194.255 111.328 193.242 111.328 191.977V191.758C111.328 190.909 111.492 190.151 111.82 189.484C112.148 188.812 112.612 188.297 113.211 187.938C113.815 187.573 114.503 187.391 115.273 187.391C116.43 187.391 117.339 187.755 118 188.484C118.667 189.214 119 190.247 119 191.586V192.508H113.617C113.69 193.06 113.909 193.503 114.273 193.836C114.643 194.169 115.109 194.336 115.672 194.336C116.542 194.336 117.221 194.021 117.711 193.391L118.82 194.633C118.482 195.112 118.023 195.487 117.445 195.758C116.867 196.023 116.227 196.156 115.523 196.156ZM115.266 189.219C114.818 189.219 114.453 189.37 114.172 189.672C113.896 189.974 113.719 190.406 113.641 190.969H116.781V190.789C116.771 190.289 116.635 189.904 116.375 189.633C116.115 189.357 115.745 189.219 115.266 189.219ZM127.641 187.547V196H125.383V189.375H123.391L123.25 191.984C123.161 193.375 122.888 194.388 122.43 195.023C121.971 195.659 121.289 195.984 120.383 196H119.617L119.594 194.164L119.875 194.141C120.281 194.109 120.578 193.87 120.766 193.422C120.953 192.974 121.07 192.211 121.117 191.133L121.273 187.547H127.641ZM137.562 188.016C138.646 188.016 139.51 188.375 140.156 189.094C140.802 189.812 141.125 190.789 141.125 192.023V192.133C141.125 193.352 140.766 194.328 140.047 195.062C139.328 195.797 138.362 196.164 137.148 196.164C135.93 196.164 134.958 195.768 134.234 194.977C133.516 194.18 133.156 193.099 133.156 191.734V191.359C133.167 189.458 133.487 187.971 134.117 186.898C134.753 185.82 135.706 185.141 136.977 184.859C137.643 184.714 138.073 184.57 138.266 184.43C138.458 184.284 138.555 184.083 138.555 183.828H140.383C140.383 184.646 140.161 185.26 139.719 185.672C139.281 186.083 138.5 186.401 137.375 186.625C136.708 186.76 136.182 187.023 135.797 187.414C135.411 187.805 135.151 188.354 135.016 189.062C135.734 188.365 136.583 188.016 137.562 188.016ZM137.133 189.844C136.596 189.844 136.174 190.023 135.867 190.383C135.565 190.742 135.414 191.326 135.414 192.133C135.414 192.852 135.562 193.401 135.859 193.781C136.156 194.156 136.586 194.344 137.148 194.344C137.695 194.344 138.117 194.159 138.414 193.789C138.711 193.419 138.862 192.875 138.867 192.156V191.969C138.867 191.276 138.714 190.75 138.406 190.391C138.104 190.026 137.68 189.844 137.133 189.844ZM147.375 196C147.271 195.797 147.195 195.544 147.148 195.242C146.602 195.852 145.891 196.156 145.016 196.156C144.188 196.156 143.5 195.917 142.953 195.438C142.411 194.958 142.141 194.354 142.141 193.625C142.141 192.729 142.471 192.042 143.133 191.562C143.799 191.083 144.76 190.841 146.016 190.836H147.055V190.352C147.055 189.961 146.953 189.648 146.75 189.414C146.552 189.18 146.237 189.062 145.805 189.062C145.424 189.062 145.125 189.154 144.906 189.336C144.693 189.518 144.586 189.768 144.586 190.086H142.328C142.328 189.596 142.479 189.143 142.781 188.727C143.083 188.31 143.51 187.984 144.062 187.75C144.615 187.51 145.234 187.391 145.922 187.391C146.964 187.391 147.789 187.654 148.398 188.18C149.013 188.701 149.32 189.435 149.32 190.383V194.047C149.326 194.849 149.438 195.456 149.656 195.867V196H147.375ZM145.508 194.43C145.841 194.43 146.148 194.357 146.43 194.211C146.711 194.06 146.919 193.859 147.055 193.609V192.156H146.211C145.081 192.156 144.479 192.547 144.406 193.328L144.398 193.461C144.398 193.742 144.497 193.974 144.695 194.156C144.893 194.339 145.164 194.43 145.508 194.43ZM156.812 189.375H153.312V196H151.055V187.547H156.812V189.375ZM160.055 192.508H158.18L157.914 184.625H160.32L160.055 192.508ZM159.117 193.742C159.497 193.742 159.802 193.854 160.031 194.078C160.266 194.302 160.383 194.589 160.383 194.938C160.383 195.281 160.266 195.565 160.031 195.789C159.802 196.013 159.497 196.125 159.117 196.125C158.742 196.125 158.438 196.013 158.203 195.789C157.974 195.565 157.859 195.281 157.859 194.938C157.859 194.594 157.974 194.31 158.203 194.086C158.438 193.857 158.742 193.742 159.117 193.742ZM58.3438 210.352H56.9922V215H54.6484V203.625H56.9922V208.18H58.0625L60.8438 203.625H63.7031L60.1953 209.008L64.0703 215H61.2734L58.3438 210.352ZM72.1797 206.547V215H69.9219V208.375H67.9297L67.7891 210.984C67.7005 212.375 67.4271 213.388 66.9688 214.023C66.5104 214.659 65.8281 214.984 64.9219 215H64.1562L64.1328 213.164L64.4141 213.141C64.8203 213.109 65.1172 212.87 65.3047 212.422C65.4922 211.974 65.6094 211.211 65.6562 210.133L65.8125 206.547H72.1797ZM79.0156 206.547H81.2734V215H79.0156V209.781L76.1875 215H73.9219V206.547H76.1875V211.758L79.0156 206.547ZM86.3125 211.883H85.4062V215H83.1484V206.547H85.4062V209.727H86.2109L88.0547 206.547H90.9062L88.1406 210.57L91.1641 215H88.1562L86.3125 211.883ZM99.3438 215H97.0781V211.75H94.2734V215H92.0156V206.547H94.2734V209.938H97.0781V206.547H99.3438V215ZM106.188 206.547H108.445V215H106.188V209.781L103.359 215H101.094V206.547H103.359V211.758L106.188 206.547ZM110.758 217.852L109.578 217.234L109.859 216.727C110.208 216.091 110.388 215.458 110.398 214.828V213.078H112.305L112.297 214.641C112.292 215.219 112.146 215.802 111.859 216.391C111.573 216.979 111.206 217.466 110.758 217.852ZM121.203 215H118.945V212.344C118.523 212.422 118.13 212.461 117.766 212.461C116.49 212.461 115.529 212.19 114.883 211.648C114.237 211.107 113.909 210.315 113.898 209.273V206.547H116.156V209.273C116.161 209.763 116.281 210.115 116.516 210.328C116.75 210.536 117.167 210.641 117.766 210.641C118.141 210.641 118.534 210.596 118.945 210.508V206.547H121.203V215ZM129.953 208.359H127.242V215H124.977V208.359H122.312V206.547H129.953V208.359ZM130.508 210.695C130.508 209.857 130.669 209.109 130.992 208.453C131.315 207.797 131.779 207.289 132.383 206.93C132.992 206.57 133.698 206.391 134.5 206.391C135.641 206.391 136.57 206.74 137.289 207.438C138.013 208.135 138.417 209.083 138.5 210.281L138.516 210.859C138.516 212.156 138.154 213.198 137.43 213.984C136.706 214.766 135.734 215.156 134.516 215.156C133.297 215.156 132.323 214.766 131.594 213.984C130.87 213.203 130.508 212.141 130.508 210.797V210.695ZM132.766 210.859C132.766 211.661 132.917 212.276 133.219 212.703C133.521 213.125 133.953 213.336 134.516 213.336C135.062 213.336 135.49 213.128 135.797 212.711C136.104 212.289 136.258 211.617 136.258 210.695C136.258 209.909 136.104 209.299 135.797 208.867C135.49 208.435 135.057 208.219 134.5 208.219C133.948 208.219 133.521 208.435 133.219 208.867C132.917 209.294 132.766 209.958 132.766 210.859ZM144.102 207.016C145.185 207.016 146.049 207.375 146.695 208.094C147.341 208.812 147.664 209.789 147.664 211.023V211.133C147.664 212.352 147.305 213.328 146.586 214.062C145.867 214.797 144.901 215.164 143.688 215.164C142.469 215.164 141.497 214.768 140.773 213.977C140.055 213.18 139.695 212.099 139.695 210.734V210.359C139.706 208.458 140.026 206.971 140.656 205.898C141.292 204.82 142.245 204.141 143.516 203.859C144.182 203.714 144.612 203.57 144.805 203.43C144.997 203.284 145.094 203.083 145.094 202.828H146.922C146.922 203.646 146.701 204.26 146.258 204.672C145.82 205.083 145.039 205.401 143.914 205.625C143.247 205.76 142.721 206.023 142.336 206.414C141.951 206.805 141.69 207.354 141.555 208.062C142.273 207.365 143.122 207.016 144.102 207.016ZM143.672 208.844C143.135 208.844 142.714 209.023 142.406 209.383C142.104 209.742 141.953 210.326 141.953 211.133C141.953 211.852 142.102 212.401 142.398 212.781C142.695 213.156 143.125 213.344 143.688 213.344C144.234 213.344 144.656 213.159 144.953 212.789C145.25 212.419 145.401 211.875 145.406 211.156V210.969C145.406 210.276 145.253 209.75 144.945 209.391C144.643 209.026 144.219 208.844 143.672 208.844ZM151.43 209.023H153.047C153.776 209.023 154.417 209.146 154.969 209.391C155.521 209.635 155.943 209.987 156.234 210.445C156.531 210.898 156.68 211.427 156.68 212.031C156.68 212.922 156.349 213.641 155.688 214.188C155.031 214.729 154.135 215 153 215H149.164V206.547H151.43V209.023ZM160.273 215H158.016V206.547H160.273V215ZM151.43 210.836V213.195H153.031C153.479 213.195 153.823 213.091 154.062 212.883C154.302 212.674 154.422 212.391 154.422 212.031C154.422 211.667 154.305 211.378 154.07 211.164C153.836 210.945 153.49 210.836 153.031 210.836H151.43ZM49.7734 231.336C50.1901 231.336 50.5286 231.221 50.7891 230.992C51.0495 230.763 51.1849 230.458 51.1953 230.078H53.3125C53.3073 230.651 53.151 231.177 52.8438 231.656C52.5365 232.13 52.1146 232.5 51.5781 232.766C51.0469 233.026 50.4583 233.156 49.8125 233.156C48.6042 233.156 47.651 232.773 46.9531 232.008C46.2552 231.237 45.9062 230.174 45.9062 228.82V228.672C45.9062 227.37 46.2526 226.331 46.9453 225.555C47.638 224.779 48.5885 224.391 49.7969 224.391C50.8542 224.391 51.7005 224.693 52.3359 225.297C52.9766 225.896 53.3021 226.695 53.3125 227.695H51.1953C51.1849 227.258 51.0495 226.904 50.7891 226.633C50.5286 226.357 50.1849 226.219 49.7578 226.219C49.2318 226.219 48.8333 226.411 48.5625 226.797C48.2969 227.177 48.1641 227.797 48.1641 228.656V228.891C48.1641 229.76 48.2969 230.385 48.5625 230.766C48.8281 231.146 49.2318 231.336 49.7734 231.336ZM57.0156 227.023H58.6328C59.362 227.023 60.0026 227.146 60.5547 227.391C61.1068 227.635 61.5286 227.987 61.8203 228.445C62.1172 228.898 62.2656 229.427 62.2656 230.031C62.2656 230.922 61.9349 231.641 61.2734 232.188C60.6172 232.729 59.7214 233 58.5859 233H54.75V224.547H57.0156V227.023ZM65.8594 233H63.6016V224.547H65.8594V233ZM57.0156 228.836V231.195H58.6172C59.0651 231.195 59.4089 231.091 59.6484 230.883C59.888 230.674 60.0078 230.391 60.0078 230.031C60.0078 229.667 59.8906 229.378 59.6562 229.164C59.4219 228.945 59.0755 228.836 58.6172 228.836H57.0156ZM73.6094 226.375H70.1094V233H67.8516V224.547H73.6094V226.375ZM82.1641 228.852C82.1641 230.154 81.8672 231.198 81.2734 231.984C80.6849 232.766 79.888 233.156 78.8828 233.156C78.0286 233.156 77.3385 232.859 76.8125 232.266V236.25H74.5547V224.547H76.6484L76.7266 225.375C77.2734 224.719 77.987 224.391 78.8672 224.391C79.9089 224.391 80.7188 224.776 81.2969 225.547C81.875 226.318 82.1641 227.38 82.1641 228.734V228.852ZM79.9062 228.688C79.9062 227.901 79.7656 227.294 79.4844 226.867C79.2083 226.44 78.8047 226.227 78.2734 226.227C77.5651 226.227 77.0781 226.497 76.8125 227.039V230.5C77.0885 231.057 77.5807 231.336 78.2891 231.336C79.3672 231.336 79.9062 230.453 79.9062 228.688ZM88.4688 233C88.3646 232.797 88.2891 232.544 88.2422 232.242C87.6953 232.852 86.9844 233.156 86.1094 233.156C85.2812 233.156 84.5938 232.917 84.0469 232.438C83.5052 231.958 83.2344 231.354 83.2344 230.625C83.2344 229.729 83.5651 229.042 84.2266 228.562C84.8932 228.083 85.8542 227.841 87.1094 227.836H88.1484V227.352C88.1484 226.961 88.0469 226.648 87.8438 226.414C87.6458 226.18 87.3307 226.062 86.8984 226.062C86.5182 226.062 86.2188 226.154 86 226.336C85.7865 226.518 85.6797 226.768 85.6797 227.086H83.4219C83.4219 226.596 83.5729 226.143 83.875 225.727C84.1771 225.31 84.6042 224.984 85.1562 224.75C85.7083 224.51 86.3281 224.391 87.0156 224.391C88.0573 224.391 88.8828 224.654 89.4922 225.18C90.1068 225.701 90.4141 226.435 90.4141 227.383V231.047C90.4193 231.849 90.5312 232.456 90.75 232.867V233H88.4688ZM86.6016 231.43C86.9349 231.43 87.2422 231.357 87.5234 231.211C87.8047 231.06 88.013 230.859 88.1484 230.609V229.156H87.3047C86.1745 229.156 85.5729 229.547 85.5 230.328L85.4922 230.461C85.4922 230.742 85.5911 230.974 85.7891 231.156C85.987 231.339 86.2578 231.43 86.6016 231.43ZM99.0391 226.359H96.3281V233H94.0625V226.359H91.3984V224.547H99.0391V226.359ZM102.594 227.023H104.211C104.94 227.023 105.581 227.146 106.133 227.391C106.685 227.635 107.107 227.987 107.398 228.445C107.695 228.898 107.844 229.427 107.844 230.031C107.844 230.922 107.513 231.641 106.852 232.188C106.195 232.729 105.299 233 104.164 233H100.328V224.547H102.594V227.023ZM102.594 228.836V231.195H104.195C104.643 231.195 104.987 231.091 105.227 230.883C105.466 230.674 105.586 230.391 105.586 230.031C105.586 229.667 105.469 229.378 105.234 229.164C105 228.945 104.654 228.836 104.195 228.836H102.594ZM116.992 233.156C115.753 233.156 114.742 232.776 113.961 232.016C113.185 231.255 112.797 230.242 112.797 228.977V228.758C112.797 227.909 112.961 227.151 113.289 226.484C113.617 225.812 114.081 225.297 114.68 224.938C115.284 224.573 115.971 224.391 116.742 224.391C117.898 224.391 118.807 224.755 119.469 225.484C120.135 226.214 120.469 227.247 120.469 228.586V229.508H115.086C115.159 230.06 115.378 230.503 115.742 230.836C116.112 231.169 116.578 231.336 117.141 231.336C118.01 231.336 118.69 231.021 119.18 230.391L120.289 231.633C119.951 232.112 119.492 232.487 118.914 232.758C118.336 233.023 117.695 233.156 116.992 233.156ZM116.734 226.219C116.286 226.219 115.922 226.37 115.641 226.672C115.365 226.974 115.188 227.406 115.109 227.969H118.25V227.789C118.24 227.289 118.104 226.904 117.844 226.633C117.583 226.357 117.214 226.219 116.734 226.219ZM123.992 224.547V231.18H126.312V224.547H128.578V231.18H130.891V224.547H133.156V231.195H134.836L134.68 235.508H132.578V233H121.734V224.547H123.992ZM139.914 233.156C138.674 233.156 137.664 232.776 136.883 232.016C136.107 231.255 135.719 230.242 135.719 228.977V228.758C135.719 227.909 135.883 227.151 136.211 226.484C136.539 225.812 137.003 225.297 137.602 224.938C138.206 224.573 138.893 224.391 139.664 224.391C140.82 224.391 141.729 224.755 142.391 225.484C143.057 226.214 143.391 227.247 143.391 228.586V229.508H138.008C138.081 230.06 138.299 230.503 138.664 230.836C139.034 231.169 139.5 231.336 140.062 231.336C140.932 231.336 141.612 231.021 142.102 230.391L143.211 231.633C142.872 232.112 142.414 232.487 141.836 232.758C141.258 233.023 140.617 233.156 139.914 233.156ZM139.656 226.219C139.208 226.219 138.844 226.37 138.562 226.672C138.286 226.974 138.109 227.406 138.031 227.969H141.172V227.789C141.161 227.289 141.026 226.904 140.766 226.633C140.505 226.357 140.135 226.219 139.656 226.219ZM138.586 222.336C138.586 222.612 138.484 222.846 138.281 223.039C138.078 223.227 137.818 223.32 137.5 223.32C137.177 223.32 136.917 223.224 136.719 223.031C136.521 222.839 136.422 222.607 136.422 222.336C136.422 222.065 136.521 221.833 136.719 221.641C136.917 221.443 137.177 221.344 137.5 221.344C137.823 221.344 138.083 221.443 138.281 221.641C138.484 221.833 138.586 222.065 138.586 222.336ZM140.227 222.336C140.227 222.055 140.331 221.82 140.539 221.633C140.753 221.44 141.01 221.344 141.312 221.344C141.62 221.344 141.875 221.44 142.078 221.633C142.286 221.826 142.391 222.06 142.391 222.336C142.391 222.607 142.292 222.841 142.094 223.039C141.896 223.232 141.635 223.328 141.312 223.328C140.99 223.328 140.727 223.232 140.523 223.039C140.326 222.841 140.227 222.607 140.227 222.336ZM156.273 228.852C156.273 230.154 155.977 231.198 155.383 231.984C154.794 232.766 153.997 233.156 152.992 233.156C152.138 233.156 151.448 232.859 150.922 232.266V236.25H148.664V224.547H150.758L150.836 225.375C151.383 224.719 152.096 224.391 152.977 224.391C154.018 224.391 154.828 224.776 155.406 225.547C155.984 226.318 156.273 227.38 156.273 228.734V228.852ZM154.016 228.688C154.016 227.901 153.875 227.294 153.594 226.867C153.318 226.44 152.914 226.227 152.383 226.227C151.674 226.227 151.188 226.497 150.922 227.039V230.5C151.198 231.057 151.69 231.336 152.398 231.336C153.477 231.336 154.016 230.453 154.016 228.688ZM162.578 233C162.474 232.797 162.398 232.544 162.352 232.242C161.805 232.852 161.094 233.156 160.219 233.156C159.391 233.156 158.703 232.917 158.156 232.438C157.615 231.958 157.344 231.354 157.344 230.625C157.344 229.729 157.674 229.042 158.336 228.562C159.003 228.083 159.964 227.841 161.219 227.836H162.258V227.352C162.258 226.961 162.156 226.648 161.953 226.414C161.755 226.18 161.44 226.062 161.008 226.062C160.628 226.062 160.328 226.154 160.109 226.336C159.896 226.518 159.789 226.768 159.789 227.086H157.531C157.531 226.596 157.682 226.143 157.984 225.727C158.286 225.31 158.714 224.984 159.266 224.75C159.818 224.51 160.438 224.391 161.125 224.391C162.167 224.391 162.992 224.654 163.602 225.18C164.216 225.701 164.523 226.435 164.523 227.383V231.047C164.529 231.849 164.641 232.456 164.859 232.867V233H162.578ZM160.711 231.43C161.044 231.43 161.352 231.357 161.633 231.211C161.914 231.06 162.122 230.859 162.258 230.609V229.156H161.414C160.284 229.156 159.682 229.547 159.609 230.328L159.602 230.461C159.602 230.742 159.701 230.974 159.898 231.156C160.096 231.339 160.367 231.43 160.711 231.43ZM170.695 227.039C170.695 226.742 170.596 226.513 170.398 226.352C170.206 226.185 169.93 226.102 169.57 226.102C169.201 226.102 168.898 226.18 168.664 226.336C168.435 226.487 168.32 226.703 168.32 226.984H166.062C166.062 226.219 166.38 225.596 167.016 225.117C167.651 224.638 168.464 224.398 169.453 224.398C170.542 224.398 171.396 224.612 172.016 225.039C172.641 225.466 172.953 226.073 172.953 226.859C172.953 227.234 172.839 227.581 172.609 227.898C172.385 228.211 172.068 228.461 171.656 228.648C172.62 228.987 173.102 229.641 173.102 230.609C173.102 231.385 172.768 232.005 172.102 232.469C171.44 232.927 170.557 233.156 169.453 233.156C168.427 233.156 167.583 232.917 166.922 232.438C166.26 231.958 165.93 231.312 165.93 230.5H168.188C168.188 230.786 168.315 231.018 168.57 231.195C168.826 231.372 169.159 231.461 169.57 231.461C169.971 231.461 170.284 231.367 170.508 231.18C170.732 230.992 170.844 230.747 170.844 230.445C170.844 230.076 170.737 229.812 170.523 229.656C170.31 229.495 169.99 229.414 169.562 229.414H168.336V227.945H169.641C170.344 227.924 170.695 227.622 170.695 227.039Z" fill="black"/>
<path d="M141.225 135.221C140.712 134.707 140.101 134.449 139.397 134.449H130.298V122.506L137.326 115.478C137.84 114.964 138.098 114.354 138.098 113.65C138.098 112.946 137.84 112.336 137.326 111.822C136.812 111.307 136.202 111.05 135.498 111.05C134.794 111.05 134.184 111.307 133.67 111.822L126.642 118.85H92.3559L85.3278 111.822C84.8132 111.307 84.2041 111.05 83.4999 111.05C82.7953 111.05 82.1862 111.307 81.6715 111.822C81.1569 112.336 80.8998 112.946 80.8998 113.65C80.8998 114.354 81.1569 114.964 81.6715 115.478L88.6996 122.506V134.449H79.6C78.8958 134.449 78.2865 134.707 77.772 135.221C77.2574 135.736 77 136.346 77 137.049C77 137.754 77.2574 138.364 77.772 138.877C78.2865 139.392 78.8958 139.65 79.6 139.65H88.6996C88.6996 143.982 89.4853 147.694 91.0558 150.78L82.8502 160.002C82.3896 160.544 82.1798 161.173 82.2206 161.891C82.261 162.607 82.5386 163.21 83.0533 163.698C83.5679 164.131 84.1498 164.348 84.7998 164.348C85.5582 164.348 86.208 164.065 86.75 163.495L94.1838 155.086L94.7935 155.656C95.1726 156.008 95.7612 156.447 96.5606 156.975C97.3598 157.503 98.2533 158.031 99.2415 158.561C100.23 159.089 101.409 159.536 102.776 159.901C104.144 160.267 105.518 160.45 106.899 160.45V124.051H112.099V160.45C113.399 160.45 114.712 160.274 116.039 159.921C117.366 159.57 118.477 159.177 119.371 158.743C120.264 158.31 121.145 157.816 122.011 157.261C122.878 156.706 123.447 156.32 123.717 156.103C123.989 155.886 124.192 155.71 124.327 155.575L132.371 163.577C132.859 164.092 133.467 164.349 134.199 164.349C134.93 164.349 135.539 164.092 136.028 163.577C136.541 163.063 136.799 162.453 136.799 161.749C136.799 161.045 136.541 160.435 136.028 159.921L127.578 151.431C129.393 148.208 130.3 144.281 130.3 139.65H139.399C140.103 139.65 140.713 139.393 141.227 138.878C141.741 138.364 142 137.754 142 137.05C142 136.346 141.741 135.736 141.225 135.221Z" fill="#EA050E"/>
<path d="M118.701 104.449C116.169 101.917 113.102 100.651 109.5 100.651C105.898 100.651 102.831 101.917 100.299 104.449C97.7667 106.981 96.501 110.049 96.501 113.65H122.499C122.499 110.049 121.233 106.981 118.701 104.449Z" fill="#EA050E"/>
<path d="M36.7139 56.0048C36.5245 55.8148 36.299 55.7197 36.039 55.7197H32.6792V51.3098L35.2742 48.7149C35.4641 48.525 35.5594 48.2999 35.5594 48.0398C35.5594 47.7799 35.4642 47.5549 35.2742 47.3649C35.0844 47.1749 34.8593 47.0799 34.5993 47.0799C34.3393 47.0799 34.1142 47.1749 33.9244 47.3649L31.3293 49.9598H18.6699L16.0749 47.3649C15.8849 47.1749 15.66 47.0799 15.4 47.0799C15.1398 47.0799 14.9149 47.1749 14.7249 47.3649C14.5348 47.5549 14.4399 47.7799 14.4399 48.0398C14.4399 48.2999 14.5348 48.525 14.7249 48.7149L17.3198 51.3098V55.7197H13.96C13.7 55.7197 13.475 55.8148 13.2851 56.0048C13.095 56.1947 13 56.4199 13 56.6797C13 56.9397 13.095 57.165 13.2851 57.3547C13.475 57.5447 13.7 57.64 13.96 57.64H17.3198C17.3198 59.2396 17.6099 60.6099 18.1898 61.7496L15.1601 65.1544C14.99 65.3546 14.9125 65.587 14.9276 65.8519C14.9425 66.1165 15.045 66.339 15.235 66.5192C15.4251 66.6792 15.6399 66.7594 15.8799 66.7594C16.1599 66.7594 16.3999 66.6548 16.6 66.4444L19.3448 63.3394L19.5699 63.5498C19.7099 63.68 19.9272 63.8421 20.2224 64.037C20.5175 64.2319 20.8474 64.427 21.2122 64.6224C21.5774 64.8173 22.0124 64.9824 22.5172 65.1172C23.0223 65.2524 23.5298 65.32 24.0397 65.32V51.8804H25.9598V65.32C26.4396 65.32 26.9245 65.2549 27.4144 65.1247C27.9045 64.9949 28.3146 64.8498 28.6447 64.6898C28.9744 64.5296 29.2998 64.3473 29.6195 64.1424C29.9396 63.9374 30.1495 63.795 30.2495 63.7148C30.3498 63.6347 30.4246 63.5697 30.4745 63.5199L33.4446 66.4747C33.625 66.6648 33.8495 66.7597 34.1195 66.7597C34.3896 66.7597 34.6145 66.6648 34.7948 66.4747C34.9843 66.2847 35.0796 66.0596 35.0796 65.7996C35.0796 65.5396 34.9844 65.3146 34.7948 65.1247L31.6748 61.9899C32.3449 60.7999 32.6798 59.3499 32.6798 57.6401H36.0397C36.2997 57.6401 36.5249 57.545 36.7146 57.355C36.9045 57.1651 37 56.94 37 56.68C37 56.4201 36.9045 56.1949 36.7139 56.0048Z" fill="#EA050E"/>
<path d="M28.3972 44.6428C27.4623 43.7079 26.3298 43.2403 24.9999 43.2403C23.6697 43.2403 22.5375 43.7079 21.6024 44.6428C20.6676 45.5778 20.2002 46.7103 20.2002 48.0402H29.7994C29.7994 46.7105 29.3321 45.5778 28.3972 44.6428Z" fill="#EA050E"/>
<path d="M18.9805 35V17.9375H24.5586C26.4102 17.9375 27.8008 18.3203 28.7305 19.0859C29.668 19.8516 30.1367 20.9844 30.1367 22.4844C30.1367 23.2812 29.9102 23.9883 29.457 24.6055C29.0039 25.2148 28.3867 25.6875 27.6055 26.0234C28.5273 26.2812 29.2539 26.7734 29.7852 27.5C30.3242 28.2188 30.5938 29.0781 30.5938 30.0781C30.5938 31.6094 30.0977 32.8125 29.1055 33.6875C28.1133 34.5625 26.7109 35 24.8984 35H18.9805ZM21.2305 27.0195V33.1602H24.9453C25.9922 33.1602 26.8164 32.8906 27.418 32.3516C28.0273 31.8047 28.332 31.0547 28.332 30.1016C28.332 28.0469 27.2148 27.0195 24.9805 27.0195H21.2305ZM21.2305 25.2148H24.6289C25.6133 25.2148 26.3984 24.9688 26.9844 24.4766C27.5781 23.9844 27.875 23.3164 27.875 22.4727C27.875 21.5352 27.6016 20.8555 27.0547 20.4336C26.5078 20.0039 25.6758 19.7891 24.5586 19.7891H21.2305V25.2148Z" fill="#EA050E"/>
<g clip-path="url(#clip0)">
<path d="M183.286 286.995C183.476 287.185 183.701 287.28 183.961 287.28L187.321 287.28L187.321 291.69L184.726 294.285C184.536 294.475 184.441 294.7 184.441 294.96C184.441 295.22 184.536 295.445 184.726 295.635C184.916 295.825 185.141 295.92 185.401 295.92C185.661 295.92 185.886 295.825 186.076 295.635L188.671 293.04L201.33 293.04L203.925 295.635C204.115 295.825 204.34 295.92 204.6 295.92C204.86 295.92 205.085 295.825 205.275 295.635C205.465 295.445 205.56 295.22 205.56 294.96C205.56 294.7 205.465 294.475 205.275 294.285L202.68 291.69L202.68 287.28L206.04 287.28C206.3 287.28 206.525 287.185 206.715 286.995C206.905 286.805 207 286.58 207 286.32C207 286.06 206.905 285.835 206.715 285.645C206.525 285.455 206.3 285.36 206.04 285.36L202.68 285.36C202.68 283.76 202.39 282.39 201.81 281.25L204.84 277.846C205.01 277.645 205.087 277.413 205.072 277.148C205.057 276.884 204.955 276.661 204.765 276.481C204.575 276.321 204.36 276.241 204.12 276.241C203.84 276.241 203.6 276.345 203.4 276.556L200.655 279.661L200.43 279.45C200.29 279.32 200.073 279.158 199.778 278.963C199.483 278.768 199.153 278.573 198.788 278.378C198.423 278.183 197.988 278.018 197.483 277.883C196.978 277.748 196.47 277.68 195.96 277.68L195.96 291.12L194.04 291.12L194.04 277.68C193.56 277.68 193.075 277.745 192.586 277.875C192.096 278.005 191.685 278.15 191.355 278.31C191.026 278.47 190.7 278.653 190.38 278.858C190.06 279.063 189.85 279.205 189.751 279.285C189.65 279.365 189.575 279.43 189.525 279.48L186.555 276.525C186.375 276.335 186.15 276.24 185.88 276.24C185.61 276.24 185.385 276.335 185.205 276.525C185.016 276.715 184.92 276.94 184.92 277.2C184.92 277.46 185.016 277.685 185.205 277.875L188.325 281.01C187.655 282.2 187.32 283.65 187.32 285.36L183.96 285.36C183.7 285.36 183.475 285.455 183.285 285.645C183.096 285.835 183 286.06 183 286.32C183 286.58 183.095 286.805 183.286 286.995Z" fill="#EA050E"/>
<path d="M191.603 298.357C192.538 299.292 193.67 299.76 195 299.76C196.33 299.76 197.463 299.292 198.398 298.357C199.332 297.422 199.8 296.29 199.8 294.96L190.201 294.96C190.201 296.29 190.668 297.422 191.603 298.357Z" fill="#EA050E"/>
</g>
<path d="M201.02 308L201.02 325.062L195.441 325.062C193.59 325.062 192.199 324.68 191.27 323.914C190.332 323.148 189.863 322.016 189.863 320.516C189.863 319.719 190.09 319.012 190.543 318.395C190.996 317.785 191.613 317.312 192.395 316.977C191.473 316.719 190.746 316.227 190.215 315.5C189.676 314.781 189.406 313.922 189.406 312.922C189.406 311.391 189.902 310.187 190.895 309.312C191.887 308.437 193.289 308 195.102 308L201.02 308ZM198.77 315.98L198.77 309.84L195.055 309.84C194.008 309.84 193.184 310.109 192.582 310.648C191.973 311.195 191.668 311.945 191.668 312.898C191.668 314.953 192.785 315.98 195.02 315.98L198.77 315.98ZM198.77 317.785L195.371 317.785C194.387 317.785 193.602 318.031 193.016 318.523C192.422 319.016 192.125 319.684 192.125 320.527C192.125 321.465 192.398 322.145 192.945 322.566C193.492 322.996 194.324 323.211 195.441 323.211L198.77 323.211L198.77 317.785Z" fill="#EA050E"/>
<defs>
<filter id="filter0_d" x="0" y="0" width="222" height="345" filterUnits="userSpaceOnUse" color-interpolation-filters="sRGB">
<feFlood flood-opacity="0" result="BackgroundImageFix"/>
<feColorMatrix in="SourceAlpha" type="matrix" values="0 0 0 0 0 0 0 0 0 0 0 0 0 0 0 0 0 0 127 0"/>
<feOffset dx="1" dy="1"/>
<feGaussianBlur stdDeviation="1"/>
<feColorMatrix type="matrix" values="0 0 0 0 0 0 0 0 0 0 0 0 0 0 0 0 0 0 0.7 0"/>
<feBlend mode="normal" in2="BackgroundImageFix" result="effect1_dropShadow"/>
<feBlend mode="normal" in="SourceGraphic" in2="effect1_dropShadow" result="shape"/>
</filter>
<clipPath id="clip0">
<rect width="24" height="24" fill="white" transform="translate(207 300) rotate(-180)"/>
</clipPath>
</defs>
</svg>
