<svg width="222" height="345" viewBox="0 0 222 345" fill="none" xmlns="http://www.w3.org/2000/svg">
<g filter="url(#filter0_d)">
<rect x="1" y="1" width="218" height="341" rx="10" fill="#F4F4F4"/>
</g>
<path d="M83.1086 130.014C84.0175 129.777 84.6516 128.953 84.6516 128.013V119.282C84.6516 118.139 83.7244 117.213 82.5822 117.213H77.9981C76.856 117.213 75.9287 118.139 75.9287 119.282C75.9287 120.425 76.8558 121.35 77.9981 121.35H79.5411V126.253C79.1256 126.461 78.1537 126.6 76.9337 126.6C72.5886 126.6 69.5654 123.748 69.5654 118.916C69.5654 113.842 72.8997 111.337 77.3163 111.337C78.7307 111.337 79.852 111.473 80.7877 111.69C81.924 111.95 83.0604 111.264 83.3534 110.137C83.5089 109.548 83.4134 108.923 83.0965 108.404C82.7793 107.887 82.2651 107.52 81.6699 107.39C80.5068 107.136 79.0533 106.957 77.3848 106.957C69.7027 106.957 64.0332 111.408 64.0002 119.195C63.9675 122.636 65.1484 125.696 67.3016 127.714C69.4604 129.8 72.5556 130.876 76.8316 130.876C79.1225 130.875 81.4101 130.457 83.1086 130.014Z" fill="black"/>
<path d="M94.2625 124.618H100.976L102.202 128.699C102.546 129.847 103.601 130.632 104.8 130.632C105.662 130.632 106.472 130.222 106.983 129.528C107.495 128.834 107.647 127.939 107.39 127.115L101.807 109.109C101.455 107.974 100.405 107.2 99.2146 107.2H96.2692C95.0762 107.2 94.0235 107.979 93.6767 109.12L88.1297 127.271C87.8875 128.059 88.0342 128.915 88.5244 129.578C89.0149 130.24 89.7925 130.632 90.6177 130.632C91.784 130.632 92.8095 129.853 93.1237 128.725L94.2625 124.618ZM96.4186 115.682C96.7985 114.326 97.1483 112.553 97.4953 111.164H97.567C97.9139 112.553 98.3325 114.293 98.7453 115.682L100.207 120.653H95.0256L96.4186 115.682Z" fill="black"/>
<path d="M136.817 127.924L135.815 109.627C135.74 108.266 134.613 107.2 133.25 107.2H130.633C129.517 107.2 128.53 107.919 128.187 108.981L126.258 114.987C125.493 117.594 124.694 120.689 124.033 123.4H123.929C123.408 120.654 122.679 117.734 121.946 115.023L120.197 109.045C119.877 107.952 118.872 107.2 117.732 107.2H115.002C113.651 107.2 112.529 108.253 112.443 109.604L111.265 128.051C111.223 128.72 111.459 129.378 111.917 129.867C112.374 130.355 113.017 130.632 113.687 130.632C114.981 130.632 116.049 129.614 116.109 128.319L116.42 121.733C116.593 118.813 116.698 115.196 116.838 112.032H116.907C117.463 115.092 118.262 118.429 119.024 121.175L121.357 129.623C121.459 129.994 121.796 130.251 122.182 130.251H125.035C125.412 130.251 125.741 130.007 125.854 129.65L128.516 121.106C129.422 118.361 130.397 115.023 131.126 112.032H131.231C131.231 115.44 131.333 118.846 131.44 121.663L131.689 128.164C131.742 129.542 132.876 130.632 134.254 130.632C134.96 130.632 135.633 130.342 136.12 129.829C136.605 129.318 136.856 128.629 136.817 127.924Z" fill="black"/>
<path d="M153.826 126.285H146.368V120.723H152.836C154.026 120.723 154.992 119.758 154.992 118.568C154.992 118.568 154.026 116.411 152.836 116.411H146.368V111.546H153.342C154.544 111.546 155.516 110.573 155.516 109.372C155.516 108.173 154.544 107.2 153.342 107.2H143.223C142.021 107.2 141.049 108.173 141.049 109.372V128.459C141.049 129.659 142.021 130.632 143.223 130.632H153.826C155.029 130.632 156 129.658 156 128.459C156 127.259 155.028 126.285 153.826 126.285Z" fill="black"/>
<path d="M79.664 144.846C72.7443 144.846 68.2617 150.096 68.2617 157.119C68.2617 163.793 72.3315 169.044 79.2812 169.044C86.1319 169.044 90.7908 164.385 90.7908 156.701C90.7908 150.236 86.8612 144.846 79.664 144.846ZM79.5592 164.836C76.0128 164.836 73.8598 161.604 73.8598 157.014C73.8598 152.461 75.9438 149.054 79.5262 149.054C83.1774 149.054 85.1927 152.667 85.1927 156.875C85.1927 161.429 83.1445 164.836 79.5592 164.836Z" fill="black"/>
<path d="M109.976 145.229C108.81 145.229 107.784 145.995 107.449 147.111L105.024 155.241C104.223 157.918 103.49 160.701 102.901 163.516H102.799C102.24 160.594 101.511 157.918 100.709 155.137L98.4277 147.207C98.0927 146.036 97.0191 145.229 95.7992 145.229C94.9259 145.229 94.1068 145.646 93.5923 146.352C93.0778 147.057 92.9284 147.966 93.1976 148.798L98.9778 166.829C99.3275 167.921 100.341 168.661 101.486 168.661H103.858C104.988 168.661 105.993 167.938 106.355 166.867L112.473 148.707C112.745 147.902 112.61 147.017 112.117 146.326C111.621 145.637 110.825 145.229 109.976 145.229Z" fill="black"/>
<path d="M128.935 164.315H121.48V158.753H127.945C129.135 158.753 130.101 157.787 130.101 156.597C130.101 156.597 129.135 154.441 127.945 154.441H121.48V149.576H128.45C129.653 149.576 130.624 148.602 130.624 147.403C130.624 146.203 129.653 145.229 128.45 145.229H118.786C117.335 145.229 116.16 146.406 116.16 147.856V166.034C116.16 167.485 117.335 168.661 118.786 168.661H128.935C130.137 168.661 131.108 167.688 131.108 166.489C131.108 165.288 130.137 164.315 128.935 164.315Z" fill="black"/>
<path d="M151.53 151.8C151.53 149.644 150.764 148.01 149.374 146.898C147.705 145.576 145.268 145.056 141.793 145.056C140.095 145.056 138.501 145.13 137.128 145.252C135.771 145.371 134.733 146.509 134.733 147.868V166.034C134.733 167.484 135.908 168.661 137.361 168.661C138.812 168.661 139.987 167.484 139.987 166.034V159.448H141.587C143.74 159.482 144.747 160.282 145.375 163.202C145.725 164.656 146.039 165.86 146.314 166.785C146.646 167.899 147.669 168.661 148.829 168.661H148.937C149.735 168.661 150.492 168.287 150.979 167.653C151.464 167.018 151.628 166.193 151.422 165.421C151.135 164.354 150.83 163.168 150.522 162.056C149.929 159.901 149.026 158.336 147.391 157.675V157.57C149.406 156.842 151.53 154.789 151.53 151.8ZM142.071 155.623H139.987V149.157C140.367 149.088 141.097 148.983 142.386 148.983C144.817 149.018 146.279 150.096 146.279 152.252C146.279 154.301 144.715 155.623 142.071 155.623Z" fill="black"/>
<path opacity="0.7" d="M53.0298 212.061H51.5938V217H49.1035V204.914H51.5938V209.753H52.731L55.686 204.914H58.7241L54.9971 210.633L59.1143 217H56.1426L53.0298 212.061ZM67.7305 208.019V217H65.3315V209.961H63.2148L63.0654 212.733C62.9714 214.211 62.6808 215.287 62.1938 215.962C61.7069 216.638 60.9819 216.983 60.019 217H59.2056L59.1807 215.049L59.4795 215.024C59.9111 214.991 60.2266 214.737 60.4258 214.261C60.625 213.785 60.7495 212.974 60.7993 211.829L60.9653 208.019H67.7305ZM74.9937 208.019H77.3926V217H74.9937V211.455L71.9888 217H69.5815V208.019H71.9888V213.555L74.9937 208.019ZM82.7466 213.688H81.7837V217H79.3848V208.019H81.7837V211.397H82.6387L84.5977 208.019H87.6274L84.689 212.293L87.9014 217H84.7056L82.7466 213.688ZM96.5923 217H94.1851V213.547H91.2051V217H88.8062V208.019H91.2051V211.621H94.1851V208.019H96.5923V217ZM103.864 208.019H106.263V217H103.864V211.455L100.859 217H98.4517V208.019H100.859V213.555L103.864 208.019ZM108.72 220.03L107.466 219.374L107.765 218.834C108.136 218.159 108.327 217.487 108.338 216.817V214.958H110.363L110.355 216.618C110.349 217.232 110.194 217.852 109.89 218.478C109.586 219.103 109.196 219.62 108.72 220.03ZM124.051 217H121.652V214.178C121.204 214.261 120.786 214.302 120.399 214.302C119.043 214.302 118.022 214.014 117.336 213.439C116.65 212.863 116.301 212.022 116.29 210.916V208.019H118.689V210.916C118.694 211.436 118.822 211.809 119.071 212.036C119.32 212.257 119.763 212.368 120.399 212.368C120.797 212.368 121.215 212.321 121.652 212.227V208.019H124.051V217ZM133.348 209.944H130.468V217H128.061V209.944H125.23V208.019H133.348V209.944ZM133.938 212.426C133.938 211.535 134.109 210.741 134.452 210.044C134.795 209.347 135.288 208.807 135.93 208.425C136.577 208.043 137.327 207.853 138.179 207.853C139.391 207.853 140.379 208.223 141.143 208.965C141.912 209.706 142.341 210.714 142.429 211.986L142.446 212.601C142.446 213.979 142.061 215.085 141.292 215.921C140.523 216.751 139.491 217.166 138.196 217.166C136.901 217.166 135.866 216.751 135.091 215.921C134.322 215.091 133.938 213.962 133.938 212.534V212.426ZM136.336 212.601C136.336 213.453 136.497 214.106 136.818 214.56C137.139 215.008 137.598 215.232 138.196 215.232C138.777 215.232 139.231 215.011 139.557 214.568C139.884 214.12 140.047 213.406 140.047 212.426C140.047 211.591 139.884 210.943 139.557 210.484C139.231 210.025 138.771 209.795 138.179 209.795C137.593 209.795 137.139 210.025 136.818 210.484C136.497 210.938 136.336 211.643 136.336 212.601ZM148.381 208.517C149.532 208.517 150.451 208.898 151.137 209.662C151.823 210.426 152.166 211.463 152.166 212.775V212.891C152.166 214.186 151.784 215.224 151.021 216.004C150.257 216.784 149.23 217.174 147.941 217.174C146.646 217.174 145.614 216.754 144.845 215.913C144.081 215.066 143.699 213.918 143.699 212.468V212.069C143.71 210.049 144.051 208.47 144.72 207.33C145.395 206.184 146.408 205.462 147.758 205.163C148.467 205.008 148.923 204.856 149.128 204.707C149.333 204.552 149.435 204.339 149.435 204.067H151.377C151.377 204.936 151.142 205.589 150.672 206.026C150.207 206.464 149.377 206.801 148.182 207.039C147.473 207.183 146.914 207.462 146.505 207.877C146.095 208.292 145.819 208.876 145.675 209.629C146.438 208.887 147.34 208.517 148.381 208.517ZM147.924 210.459C147.354 210.459 146.906 210.65 146.58 211.032C146.259 211.414 146.098 212.033 146.098 212.891C146.098 213.655 146.256 214.239 146.571 214.643C146.887 215.041 147.343 215.24 147.941 215.24C148.522 215.24 148.97 215.044 149.286 214.651C149.601 214.258 149.762 213.68 149.767 212.916V212.717C149.767 211.981 149.604 211.422 149.277 211.04C148.956 210.653 148.505 210.459 147.924 210.459ZM156.167 210.65H157.885C158.66 210.65 159.341 210.78 159.927 211.04C160.514 211.3 160.962 211.674 161.272 212.161C161.587 212.642 161.745 213.204 161.745 213.846C161.745 214.792 161.394 215.556 160.691 216.137C159.994 216.712 159.042 217 157.835 217H153.76V208.019H156.167V210.65ZM165.563 217H163.165V208.019H165.563V217ZM156.167 212.576V215.083H157.869C158.345 215.083 158.71 214.972 158.964 214.75C159.219 214.529 159.346 214.228 159.346 213.846C159.346 213.458 159.222 213.151 158.973 212.924C158.724 212.692 158.356 212.576 157.869 212.576H156.167ZM46.0405 235.232C46.4832 235.232 46.8429 235.11 47.1196 234.867C47.3963 234.623 47.5402 234.299 47.5513 233.896H49.8008C49.7952 234.504 49.6292 235.063 49.3027 235.572C48.9762 236.076 48.528 236.469 47.958 236.751C47.3936 237.028 46.7682 237.166 46.082 237.166C44.7982 237.166 43.7855 236.759 43.0439 235.946C42.3024 235.127 41.9316 233.998 41.9316 232.559V232.401C41.9316 231.018 42.2996 229.914 43.0356 229.089C43.7716 228.265 44.7816 227.853 46.0654 227.853C47.1888 227.853 48.0881 228.174 48.7632 228.815C49.4438 229.452 49.7897 230.301 49.8008 231.364H47.5513C47.5402 230.899 47.3963 230.523 47.1196 230.235C46.8429 229.942 46.4777 229.795 46.0239 229.795C45.465 229.795 45.0417 230 44.7539 230.409C44.4717 230.813 44.3306 231.472 44.3306 232.385V232.634C44.3306 233.558 44.4717 234.222 44.7539 234.626C45.0361 235.03 45.465 235.232 46.0405 235.232ZM53.7354 230.65H55.4536C56.2284 230.65 56.909 230.78 57.4956 231.04C58.0822 231.3 58.5304 231.674 58.8403 232.161C59.1558 232.642 59.3135 233.204 59.3135 233.846C59.3135 234.792 58.9621 235.556 58.2593 236.137C57.562 236.712 56.6102 237 55.4038 237H51.3281V228.019H53.7354V230.65ZM63.1318 237H60.7329V228.019H63.1318V237ZM53.7354 232.576V235.083H55.437C55.9129 235.083 56.2782 234.972 56.5327 234.75C56.7873 234.529 56.9146 234.228 56.9146 233.846C56.9146 233.458 56.79 233.151 56.541 232.924C56.292 232.692 55.924 232.576 55.437 232.576H53.7354ZM71.3662 229.961H67.6475V237H65.2485V228.019H71.3662V229.961ZM80.4556 232.592C80.4556 233.976 80.1401 235.085 79.5093 235.921C78.884 236.751 78.0373 237.166 76.9692 237.166C76.0617 237.166 75.3285 236.851 74.7695 236.22V240.453H72.3706V228.019H74.5952L74.6782 228.898C75.2593 228.201 76.0174 227.853 76.9526 227.853C78.0594 227.853 78.9199 228.262 79.5342 229.081C80.1484 229.9 80.4556 231.029 80.4556 232.468V232.592ZM78.0566 232.418C78.0566 231.582 77.9072 230.938 77.6084 230.484C77.3151 230.03 76.8862 229.803 76.3218 229.803C75.5692 229.803 75.0518 230.091 74.7695 230.667V234.344C75.0628 234.936 75.5858 235.232 76.3384 235.232C77.4839 235.232 78.0566 234.294 78.0566 232.418ZM87.1543 237C87.0436 236.784 86.9634 236.516 86.9136 236.195C86.3325 236.842 85.5771 237.166 84.6475 237.166C83.7676 237.166 83.0371 236.911 82.4561 236.402C81.8805 235.893 81.5928 235.251 81.5928 234.477C81.5928 233.525 81.9442 232.794 82.647 232.285C83.3553 231.776 84.3763 231.519 85.71 231.513H86.814V230.999C86.814 230.583 86.7061 230.251 86.4902 230.002C86.2799 229.753 85.9451 229.629 85.4858 229.629C85.0819 229.629 84.7637 229.726 84.5312 229.919C84.3044 230.113 84.1909 230.379 84.1909 230.716H81.792C81.792 230.196 81.9525 229.715 82.2734 229.272C82.5944 228.829 83.0482 228.483 83.6348 228.234C84.2214 227.98 84.8799 227.853 85.6104 227.853C86.7171 227.853 87.5942 228.132 88.2417 228.691C88.8947 229.244 89.2212 230.025 89.2212 231.032V234.925C89.2267 235.777 89.3457 236.422 89.5781 236.859V237H87.1543ZM85.1704 235.332C85.5246 235.332 85.8511 235.254 86.1499 235.099C86.4487 234.939 86.6701 234.726 86.814 234.46V232.916H85.9175C84.7166 232.916 84.0775 233.331 84 234.161L83.9917 234.302C83.9917 234.601 84.0968 234.847 84.3071 235.041C84.5174 235.235 84.8052 235.332 85.1704 235.332ZM98.3853 229.944H95.5049V237H93.0977V229.944H90.2671V228.019H98.3853V229.944ZM102.162 230.65H103.88C104.655 230.65 105.336 230.78 105.922 231.04C106.509 231.3 106.957 231.674 107.267 232.161C107.583 232.642 107.74 233.204 107.74 233.846C107.74 234.792 107.389 235.556 106.686 236.137C105.989 236.712 105.037 237 103.831 237H99.7549V228.019H102.162V230.65ZM102.162 232.576V235.083H103.864C104.34 235.083 104.705 234.972 104.959 234.75C105.214 234.529 105.341 234.228 105.341 233.846C105.341 233.458 105.217 233.151 104.968 232.924C104.719 232.692 104.351 232.576 103.864 232.576H102.162ZM117.46 237.166C116.143 237.166 115.07 236.762 114.24 235.954C113.415 235.146 113.003 234.07 113.003 232.725V232.493C113.003 231.591 113.177 230.785 113.526 230.077C113.875 229.363 114.367 228.815 115.003 228.434C115.645 228.046 116.376 227.853 117.195 227.853C118.423 227.853 119.389 228.24 120.092 229.015C120.8 229.789 121.154 230.888 121.154 232.31V233.29H115.435C115.513 233.876 115.745 234.347 116.132 234.701C116.525 235.055 117.021 235.232 117.618 235.232C118.542 235.232 119.264 234.897 119.785 234.228L120.963 235.547C120.604 236.056 120.117 236.455 119.502 236.743C118.888 237.025 118.208 237.166 117.46 237.166ZM117.187 229.795C116.711 229.795 116.323 229.955 116.024 230.276C115.731 230.597 115.543 231.057 115.46 231.654H118.797V231.463C118.786 230.932 118.642 230.523 118.365 230.235C118.089 229.942 117.696 229.795 117.187 229.795ZM124.898 228.019V235.066H127.363V228.019H129.771V235.066H132.228V228.019H134.635V235.083H136.419L136.253 239.665H134.021V237H122.499V228.019H124.898ZM141.815 237.166C140.498 237.166 139.424 236.762 138.594 235.954C137.77 235.146 137.357 234.07 137.357 232.725V232.493C137.357 231.591 137.532 230.785 137.88 230.077C138.229 229.363 138.722 228.815 139.358 228.434C140 228.046 140.73 227.853 141.549 227.853C142.778 227.853 143.743 228.24 144.446 229.015C145.155 229.789 145.509 230.888 145.509 232.31V233.29H139.79C139.867 233.876 140.099 234.347 140.487 234.701C140.88 235.055 141.375 235.232 141.973 235.232C142.897 235.232 143.619 234.897 144.139 234.228L145.318 235.547C144.958 236.056 144.471 236.455 143.857 236.743C143.243 237.025 142.562 237.166 141.815 237.166ZM141.541 229.795C141.065 229.795 140.678 229.955 140.379 230.276C140.086 230.597 139.897 231.057 139.814 231.654H143.151V231.463C143.14 230.932 142.996 230.523 142.72 230.235C142.443 229.942 142.05 229.795 141.541 229.795ZM140.404 225.669C140.404 225.963 140.296 226.212 140.08 226.417C139.864 226.616 139.588 226.715 139.25 226.715C138.907 226.715 138.63 226.613 138.42 226.408C138.21 226.203 138.104 225.957 138.104 225.669C138.104 225.382 138.21 225.135 138.42 224.931C138.63 224.72 138.907 224.615 139.25 224.615C139.593 224.615 139.87 224.72 140.08 224.931C140.296 225.135 140.404 225.382 140.404 225.669ZM142.147 225.669C142.147 225.371 142.258 225.122 142.479 224.922C142.706 224.718 142.98 224.615 143.301 224.615C143.627 224.615 143.898 224.718 144.114 224.922C144.336 225.127 144.446 225.376 144.446 225.669C144.446 225.957 144.341 226.206 144.131 226.417C143.921 226.621 143.644 226.724 143.301 226.724C142.958 226.724 142.678 226.621 142.462 226.417C142.252 226.206 142.147 225.957 142.147 225.669ZM159.197 232.592C159.197 233.976 158.881 235.085 158.25 235.921C157.625 236.751 156.778 237.166 155.71 237.166C154.803 237.166 154.07 236.851 153.511 236.22V240.453H151.112V228.019H153.336L153.419 228.898C154 228.201 154.759 227.853 155.694 227.853C156.801 227.853 157.661 228.262 158.275 229.081C158.89 229.9 159.197 231.029 159.197 232.468V232.592ZM156.798 232.418C156.798 231.582 156.648 230.938 156.35 230.484C156.056 230.03 155.627 229.803 155.063 229.803C154.31 229.803 153.793 230.091 153.511 230.667V234.344C153.804 234.936 154.327 235.232 155.08 235.232C156.225 235.232 156.798 234.294 156.798 232.418ZM165.896 237C165.785 236.784 165.705 236.516 165.655 236.195C165.074 236.842 164.318 237.166 163.389 237.166C162.509 237.166 161.778 236.911 161.197 236.402C160.622 235.893 160.334 235.251 160.334 234.477C160.334 233.525 160.685 232.794 161.388 232.285C162.097 231.776 163.118 231.519 164.451 231.513H165.555V230.999C165.555 230.583 165.447 230.251 165.231 230.002C165.021 229.753 164.686 229.629 164.227 229.629C163.823 229.629 163.505 229.726 163.272 229.919C163.046 230.113 162.932 230.379 162.932 230.716H160.533C160.533 230.196 160.694 229.715 161.015 229.272C161.336 228.829 161.789 228.483 162.376 228.234C162.963 227.98 163.621 227.853 164.352 227.853C165.458 227.853 166.335 228.132 166.983 228.691C167.636 229.244 167.962 230.025 167.962 231.032V234.925C167.968 235.777 168.087 236.422 168.319 236.859V237H165.896ZM163.912 235.332C164.266 235.332 164.592 235.254 164.891 235.099C165.19 234.939 165.411 234.726 165.555 234.46V232.916H164.659C163.458 232.916 162.819 233.331 162.741 234.161L162.733 234.302C162.733 234.601 162.838 234.847 163.048 235.041C163.259 235.235 163.546 235.332 163.912 235.332ZM174.52 230.667C174.52 230.351 174.415 230.108 174.205 229.936C174 229.759 173.707 229.67 173.325 229.67C172.932 229.67 172.611 229.753 172.362 229.919C172.118 230.08 171.997 230.31 171.997 230.608H169.598C169.598 229.795 169.935 229.134 170.61 228.625C171.285 228.115 172.149 227.861 173.2 227.861C174.357 227.861 175.264 228.088 175.923 228.542C176.587 228.995 176.919 229.64 176.919 230.476C176.919 230.874 176.797 231.242 176.554 231.58C176.316 231.912 175.978 232.177 175.541 232.376C176.565 232.736 177.077 233.431 177.077 234.46C177.077 235.285 176.722 235.943 176.014 236.436C175.311 236.923 174.373 237.166 173.2 237.166C172.11 237.166 171.214 236.911 170.511 236.402C169.808 235.893 169.457 235.207 169.457 234.344H171.855C171.855 234.648 171.991 234.894 172.262 235.083C172.533 235.271 172.888 235.365 173.325 235.365C173.751 235.365 174.083 235.265 174.321 235.066C174.559 234.867 174.678 234.607 174.678 234.286C174.678 233.893 174.564 233.613 174.337 233.447C174.111 233.276 173.77 233.19 173.316 233.19H172.013V231.629H173.399C174.146 231.607 174.52 231.286 174.52 230.667Z" fill="black"/>
<defs>
<filter id="filter0_d" x="0" y="0" width="222" height="345" filterUnits="userSpaceOnUse" color-interpolation-filters="sRGB">
<feFlood flood-opacity="0" result="BackgroundImageFix"/>
<feColorMatrix in="SourceAlpha" type="matrix" values="0 0 0 0 0 0 0 0 0 0 0 0 0 0 0 0 0 0 127 0"/>
<feOffset dx="1" dy="1"/>
<feGaussianBlur stdDeviation="1"/>
<feColorMatrix type="matrix" values="0 0 0 0 0 0 0 0 0 0 0 0 0 0 0 0 0 0 0.7 0"/>
<feBlend mode="normal" in2="BackgroundImageFix" result="effect1_dropShadow"/>
<feBlend mode="normal" in="SourceGraphic" in2="effect1_dropShadow" result="shape"/>
</filter>
</defs>
</svg>
