<svg width="222" height="345" fill="none" xmlns="http://www.w3.org/2000/svg"><g filter="url(#filter0_d)"><rect x="1" y="1" width="218" height="341" rx="10" fill="#F4F4F4"/></g><path d="M83 130l2-2v-9l-2-2h-5a2 2 0 000 4h2v5l-3 1c-4 0-7-3-7-8s3-8 7-8l4 1 2-2a2 2 0 00-1-3h-5c-7 0-13 4-13 12 0 4 1 7 3 9s6 3 10 3l6-1zM94 125h7l1 4a3 3 0 105-2l-5-18-3-2h-3l-2 2-6 18a3 3 0 105 2l1-4zm2-9l1-5h1l1 5 1 5h-5l1-5zM137 128l-1-18c0-2-1-3-3-3h-2l-3 2-2 6-2 8-2-8-2-6-2-2h-3l-3 3-1 18a2 2 0 003 3c1 0 2-1 2-3v-6l1-10 2 9 2 9h5l3-9 2-9v10l1 6a3 3 0 105 0zM154 126h-8v-5h7l2-2-2-3h-7v-4h7a2 2 0 100-5h-10l-2 2v19c0 2 1 3 2 3h11a2 2 0 100-5zM80 145c-7 0-12 5-12 12s4 12 11 12 12-5 12-12-4-12-11-12zm0 20c-4 0-6-3-6-8s2-8 6-8c3 0 5 4 5 8s-2 8-5 8zM110 145l-3 2-2 8-2 9-2-9-3-8a3 3 0 10-5 2l6 18 2 2h3l2-2 6-18a3 3 0 00-2-4zM129 164h-8v-5h7l2-2-2-3h-7v-4h7a2 2 0 100-5h-9c-2 0-3 1-3 3v18c0 1 1 3 3 3h10a2 2 0 100-5zM152 152c0-2-1-4-3-5l-7-2h-5l-2 3v18a3 3 0 005 0v-7h2c2 0 3 1 3 4l1 4 3 2a3 3 0 002-4v-3c-1-2-2-4-4-4 2-1 5-3 5-6zm-10 4h-2v-7h2c3 0 4 1 4 3s-1 4-4 4z" fill="#000"/><path opacity=".7" d="M53 212h-1v5h-3v-12h3v5h1l3-5h3l-4 6 4 6h-3l-3-5zm15-4v9h-3v-7h-2v3l-1 3-2 1h-1v-2l1-1 1-2v-4h7zm7 0h2v9h-2v-6l-3 6h-2v-9h2v6l3-6zm8 6h-1v3h-3v-9h3v3h1l2-3h3l-3 4 3 5h-3l-2-3zm14 3h-3v-3h-3v3h-2v-9h2v4h3v-4h3v9zm7-9h2v9h-2v-6l-3 6h-3v-9h3v6l3-6zm5 12l-2-1h1v-4h2v3l-1 2zm15-3h-2v-3h-2l-3-1-1-2v-3h3v4h3v-4h2v9zm9-7h-3v7h-2v-7h-3v-2h8v2zm1 2v-2l2-2h2l3 1 1 3v1l-1 3-3 1-3-1-1-3v-1zm2 1l1 2h3v-3-2h-2-1l-1 3zm12-4l3 1 1 3-1 3-3 1-3-1-1-4 1-5c0-1 1-2 3-2h1v-1h2v2l-3 1-1 1-1 2 2-1zm0 1l-1 1-1 2 1 2h2l1-2-1-2-1-1zm8 1h4a3 3 0 012 3l-1 2-3 1h-4v-9h2v3zm10 6h-3v-9h3v9zm-10-4v2h3v-1-1h-3zM46 235h1l1-1h2l-1 2-1 1h-2l-3-1-1-3v-1l1-3 3-1 3 1 1 2h-2l-1-1h-2l-1 2v1l1 2h1zm8-4h3a3 3 0 012 3l-1 2-3 1h-4v-9h3v3zm9 6h-2v-9h2v9zm-9-4v2h3v-1-1h-3zm17-3h-3v7h-3v-9h6v2zm9 3v3l-3 1-2-1v4h-3v-12h3v1l2-1 3 1v4zm-2-1v-2h-2l-1 1v3l1 1c1 0 2-1 2-3zm9 5v-1l-2 1-3-1v-2l1-2h4v-1l-1-1h-1l-1 1h-2v-2l2-1h2l2 1 1 2v4l1 2h-3zm-2-2h1l1-1v-1h-1l-2 1v1h1zm13-5h-2v7h-3v-7h-3v-2h8v2zm4 1h4a3 3 0 012 3l-1 2-3 1h-4v-9h2v3zm0 2v2h3v-1-1h-3zm15 4l-3-1-1-3v-1l1-2 1-2h2l3 1 1 3v1h-6l1 2h2l2-1 1 2-1 1h-3zm0-7h-1l-1 2h4v-1l-1-1h-1zm8-2v7h2v-7h3v7h2v-7h3v7h1v5h-2v-3h-12v-9h3zm17 9l-3-1-2-3v-1l1-2 1-2h3l2 1 2 3v1h-6v2h2l2-1 1 2-1 1h-2zm0-7h-2v2h3v-1-1h-1zm-2-4l-1 1-1-1v-1h2v1zm2 0v-1h2v1l-1 1-1-1zm17 7l-1 3-2 1-2-1v4h-3v-12h2v1l3-1 2 1 1 3v1zm-2-1l-1-2h-1l-1 1v3l1 1c1 0 2-1 2-3zm9 5v-1l-3 1-2-1-1-2 1-2h5v-1l-1-1h-1-1v1h-2v-2l1-1h2l3 1 1 2v6h-2zm-2-2h1l1-1v-1h-1l-2 1v1h1zm11-4l-1-1h-1-1v1h-2l1-2 2-1 3 1 1 1v2h-1l1 2-1 2-3 1-2-1-2-2h3v1h2l1-1-1-1h-2v-1h1l2-1z" fill="#000"/><defs><filter id="filter0_d" x="0" y="0" width="222" height="345" filterUnits="userSpaceOnUse" color-interpolation-filters="sRGB"><feFlood flood-opacity="0" result="BackgroundImageFix"/><feColorMatrix in="SourceAlpha" values="0 0 0 0 0 0 0 0 0 0 0 0 0 0 0 0 0 0 127 0"/><feOffset dx="1" dy="1"/><feGaussianBlur stdDeviation="1"/><feColorMatrix values="0 0 0 0 0 0 0 0 0 0 0 0 0 0 0 0 0 0 0.7 0"/><feBlend in2="BackgroundImageFix" result="effect1_dropShadow"/><feBlend in="SourceGraphic" in2="effect1_dropShadow" result="shape"/></filter></defs></svg>